<svg width="154" height="64" viewBox="0 0 154 64" fill="none" xmlns="http://www.w3.org/2000/svg">
<path d="M35.5918 22.549C35.5918 19.2525 38.2608 16.5801 41.5531 16.5801C44.8454 16.5801 47.5144 19.2525 47.5144 22.549C47.5144 25.8455 44.8454 28.5179 41.5531 28.5179C38.2608 28.5179 35.5918 25.8455 35.5918 22.549Z" fill="black"/>
<path d="M41.9142 31.1636V35.4588C41.9142 37.3619 41.9129 38.7082 41.8258 39.7601C41.74 40.7957 41.5774 41.4267 41.3204 41.9215C40.8203 42.8855 40.0354 43.6717 39.0724 44.1724C38.5782 44.4298 37.948 44.5926 36.9137 44.6785C35.8632 44.7657 34.5186 44.767 32.6181 44.767H28.6601C26.7595 44.767 25.415 44.7657 24.3646 44.6785C23.3301 44.5926 22.7001 44.4298 22.2058 44.1724C21.2429 43.6717 20.4578 42.8855 19.9576 41.9215C19.7009 41.4267 19.5383 40.7957 19.4524 39.7601C19.3652 38.7082 19.3641 37.3619 19.3641 35.4588V31.4959C19.3641 29.5928 19.3652 28.2467 19.4524 27.1949C19.5383 26.1591 19.7009 25.5283 19.9576 25.0334C20.4578 24.0692 21.2429 23.2831 22.2058 22.7823C22.7001 22.5252 23.3301 22.3624 24.3646 22.2764C25.415 22.1891 26.7594 22.188 28.6601 22.188H32.95C32.9883 21.2582 33.1737 20.3663 33.4833 19.5352H28.6011C26.7727 19.5351 25.3182 19.5351 24.1453 19.6327C22.944 19.7325 21.92 19.9416 20.9845 20.4281C19.5377 21.1807 18.358 22.3618 17.6065 23.8105C17.1205 24.7471 16.9118 25.7725 16.812 26.9754C16.7146 28.1498 16.7146 29.6061 16.7146 31.4369V35.5178C16.7146 37.3486 16.7146 38.8051 16.812 39.9796C16.9118 41.1823 17.1205 42.2077 17.6065 43.1445C18.358 44.5929 19.5377 45.7741 20.9845 46.5268C21.92 47.0133 22.944 47.2222 24.1453 47.3224C25.3182 47.4199 26.7727 47.4199 28.6011 47.4199H32.677C34.5053 47.4199 35.9599 47.4199 37.1329 47.3224C38.3341 47.2222 39.3582 47.0133 40.2938 46.5268C41.7404 45.7741 42.92 44.5929 43.6718 43.1445C44.1577 42.2077 44.3663 41.1823 44.4663 39.9796C44.5637 38.8051 44.5637 37.3486 44.5637 35.5182V30.6295C43.7334 30.9396 42.8429 31.1252 41.9142 31.1636Z" fill="black"/>
<path d="M64.5655 30.9357C64.5655 31.7501 64.3694 32.5136 63.9773 33.2264C63.5998 33.939 62.997 34.5133 62.1691 34.9497C61.3557 35.3858 60.3244 35.604 59.0751 35.604H56.526V41.4505H53.4758V26.2236H59.0751C60.2518 26.2236 61.254 26.4272 62.0819 26.8345C62.9096 27.2417 63.5269 27.8015 63.9336 28.5142C64.3549 29.2268 64.5655 30.034 64.5655 30.9357ZM58.9443 33.139C59.7869 33.139 60.4115 32.9499 60.8182 32.5718C61.2248 32.1791 61.4282 31.6337 61.4282 30.9357C61.4282 29.4522 60.6002 28.7105 58.9443 28.7105H56.526V33.139H58.9443Z" fill="black"/>
<path d="M68.9098 31.241C69.3019 30.6011 69.8103 30.0994 70.4349 29.7358C71.0738 29.3722 71.8 29.1904 72.6134 29.1904V32.3972H71.8073C70.8489 32.3972 70.1226 32.6227 69.6288 33.0735C69.1493 33.5245 68.9098 34.3097 68.9098 35.4295V41.4505H65.8596V29.365H68.9098V31.241Z" fill="black"/>
<path d="M79.1561 41.6472C77.9943 41.6472 76.9484 41.3925 76.0188 40.8835C75.0892 40.3599 74.3559 39.6257 73.8184 38.6803C73.2955 37.7349 73.0342 36.6442 73.0342 35.408C73.0342 34.1718 73.3028 33.0811 73.8403 32.1358C74.392 31.1905 75.1402 30.4633 76.0844 29.9543C77.0282 29.4307 78.0814 29.1689 79.2435 29.1689C80.4053 29.1689 81.4585 29.4307 82.4027 29.9543C83.3466 30.4633 84.0874 31.1905 84.6249 32.1358C85.1767 33.0811 85.4529 34.1718 85.4529 35.408C85.4529 36.6442 85.1694 37.7349 84.6031 38.6803C84.051 39.6257 83.2959 40.3599 82.3371 40.8835C81.3929 41.3925 80.3328 41.6472 79.1561 41.6472ZM79.1561 38.9857C79.7082 38.9857 80.2238 38.8547 80.7031 38.5931C81.1968 38.3168 81.5893 37.9096 81.8797 37.3714C82.1702 36.8332 82.3152 36.179 82.3152 35.408C82.3152 34.259 82.0102 33.3792 81.4002 32.7684C80.8047 32.1431 80.0712 31.8304 79.1998 31.8304C78.3285 31.8304 77.5949 32.1431 76.9994 32.7684C76.4182 33.3792 76.1278 34.259 76.1278 35.408C76.1278 36.557 76.4109 37.444 76.9776 38.0695C77.5585 38.6803 78.2848 38.9857 79.1561 38.9857Z" fill="black"/>
<path d="M86.0344 35.3644C86.0344 34.1428 86.2739 33.0592 86.7534 32.1139C87.2472 31.1686 87.9152 30.4414 88.7577 29.9324C89.6003 29.4233 90.5369 29.1688 91.5682 29.1688C92.3527 29.1688 93.1005 29.3434 93.8123 29.6924C94.524 30.0269 95.0906 30.4778 95.5116 31.0449V25.3076H98.6055V41.4507H95.5116V39.6617C95.134 40.258 94.6038 40.7381 93.9212 41.1016C93.2386 41.4653 92.4471 41.6471 91.5463 41.6471C90.5296 41.6471 89.6003 41.3851 88.7577 40.8618C87.9152 40.3382 87.2472 39.6037 86.7534 38.6583C86.2739 37.6986 86.0344 36.6003 86.0344 35.3644ZM95.5334 35.4079C95.5334 34.6661 95.3884 34.0337 95.0979 33.5101C94.8071 32.9719 94.415 32.5647 93.9212 32.2884C93.4274 31.9975 92.8972 31.8521 92.3309 31.8521C91.7642 31.8521 91.2413 31.9902 90.7621 32.2666C90.2828 32.5429 89.8907 32.9501 89.5857 33.4882C89.2953 34.0118 89.1499 34.6372 89.1499 35.3644C89.1499 36.0913 89.2953 36.7313 89.5857 37.2841C89.8907 37.822 90.2828 38.2365 90.7621 38.5273C91.2558 38.8184 91.7788 38.9637 92.3309 38.9637C92.8972 38.9637 93.4274 38.8257 93.9212 38.5492C94.415 38.2584 94.8071 37.8512 95.0979 37.3275C95.3884 36.7897 95.5334 36.1497 95.5334 35.4079Z" fill="black"/>
<path d="M112.108 29.3652V41.4508H109.036V39.9237C108.643 40.4473 108.128 40.8619 107.489 41.1673C106.864 41.4581 106.181 41.6033 105.441 41.6033C104.497 41.6033 103.661 41.407 102.935 41.0144C102.209 40.6072 101.635 40.0183 101.214 39.2473C100.807 38.462 100.604 37.5312 100.604 36.4551V29.3652H103.654V36.0187C103.654 36.9787 103.894 37.7202 104.373 38.2438C104.852 38.7528 105.506 39.0075 106.334 39.0075C107.176 39.0075 107.837 38.7528 108.317 38.2438C108.796 37.7202 109.036 36.9787 109.036 36.0187V29.3652H112.108Z" fill="black"/>
<path d="M113.461 35.408C113.461 34.1572 113.716 33.0665 114.224 32.1358C114.732 31.1905 115.437 30.4633 116.337 29.9543C117.238 29.4307 118.269 29.1689 119.431 29.1689C120.927 29.1689 122.161 29.5471 123.135 30.3033C124.122 31.045 124.783 32.0922 125.117 33.4445H121.828C121.653 32.9211 121.355 32.5139 120.934 32.223C120.528 31.9176 120.019 31.7649 119.409 31.7649C118.538 31.7649 117.848 32.0849 117.339 32.7248C116.831 33.35 116.577 34.2447 116.577 35.408C116.577 36.557 116.831 37.4513 117.339 38.0913C117.848 38.7168 118.538 39.0295 119.409 39.0295C120.644 39.0295 121.45 38.4767 121.828 37.3714H125.117C124.783 38.6803 124.122 39.7202 123.135 40.4908C122.147 41.2618 120.912 41.6472 119.431 41.6472C118.269 41.6472 117.238 41.3925 116.337 40.8835C115.437 40.3599 114.732 39.633 114.224 38.7022C113.716 37.7567 113.461 36.6588 113.461 35.408Z" fill="black"/>
<path d="M130.032 31.8743V37.7206C130.032 38.1278 130.126 38.4259 130.315 38.6152C130.518 38.7897 130.852 38.8769 131.317 38.8769H132.733V41.4511H130.816C128.245 41.4511 126.96 40.2003 126.96 37.699V31.8743H125.522V29.3656H126.96V26.377H130.032V29.3656H132.733V31.8743H130.032Z" fill="black"/>
<path d="M135.406 41.6041C134.855 41.6041 134.397 41.4366 134.034 41.1023C133.685 40.7532 133.511 40.3241 133.511 39.8151C133.511 39.306 133.685 38.8842 134.034 38.55C134.397 38.2008 134.855 38.0264 135.406 38.0264C135.944 38.0264 136.387 38.2008 136.735 38.55C137.084 38.8842 137.258 39.306 137.258 39.8151C137.258 40.3241 137.084 40.7532 136.735 41.1023C136.387 41.4366 135.944 41.6041 135.406 41.6041Z" fill="black"/>
</svg>
