<svg width="180" height="64" viewBox="0 0 180 64" fill="none" xmlns="http://www.w3.org/2000/svg">
<path d="M34.26 20.215H23.9561V16.8643H34.26C37.8169 16.8643 40.7001 19.8646 40.7001 23.5658V34.2885H37.48V23.5658C37.48 21.7153 36.0384 20.215 34.26 20.215Z" fill="black"/>
<path d="M22.6679 38.9797H32.9718V42.3305H22.6679C19.1111 42.3305 16.2278 39.3298 16.2278 35.6289V24.9062H19.4478V35.6289C19.4478 37.4792 20.8895 38.9797 22.6679 38.9797Z" fill="black"/>
<path fill-rule="evenodd" clip-rule="evenodd" d="M34.9039 29.5971C34.9039 33.2983 32.0208 36.2988 28.464 36.2988C24.9072 36.2988 22.0239 33.2983 22.0239 29.5971C22.0239 25.8959 24.9072 22.8955 28.464 22.8955C32.0208 22.8955 34.9039 25.8959 34.9039 29.5971ZM31.684 29.5971C31.684 31.4477 30.2424 32.9479 28.464 32.9479C26.6856 32.9479 25.244 31.4477 25.244 29.5971C25.244 27.7465 26.6856 26.2463 28.464 26.2463C30.2424 26.2463 31.684 27.7465 31.684 29.5971Z" fill="black"/>
<path d="M54.4414 40.1956C53.222 40.1956 52.1243 39.9781 51.1483 39.5428C50.1726 39.0895 49.4059 38.4548 48.8485 37.6389C48.2908 36.823 48.012 35.8711 48.012 34.7834H51.2008C51.2703 35.5993 51.5753 36.2701 52.1156 36.7959C52.673 37.3216 53.4483 37.5846 54.4414 37.5846C55.4696 37.5846 56.271 37.3307 56.8461 36.823C57.4209 36.2973 57.7085 35.6264 57.7085 34.8105C57.7085 34.1759 57.5256 33.6592 57.1598 33.2603C56.811 32.8614 56.367 32.5531 55.8267 32.3356C55.3041 32.118 54.5721 31.8823 53.6312 31.6285C52.4466 31.3021 51.4796 30.9757 50.7303 30.6494C49.9984 30.3049 49.3711 29.7791 48.8485 29.0719C48.3256 28.3648 48.0644 27.422 48.0644 26.2434C48.0644 25.1555 48.3256 24.2037 48.8485 23.3877C49.3711 22.5718 50.1031 21.9463 51.0439 21.5111C51.9848 21.076 53.0739 20.8584 54.311 20.8584C56.0707 20.8584 57.5082 21.3207 58.6233 22.2455C59.7558 23.152 60.383 24.4031 60.5051 25.9986H57.2119C57.1598 25.3097 56.8461 24.7204 56.271 24.2308C55.6959 23.7413 54.9383 23.4965 53.9974 23.4965C53.1434 23.4965 52.4466 23.7232 51.9063 24.1764C51.3663 24.6297 51.0961 25.2825 51.0961 26.1346C51.0961 26.7148 51.2616 27.1953 51.5926 27.5761C51.941 27.9387 52.3767 28.2288 52.8997 28.4464C53.4223 28.664 54.1365 28.8997 55.0426 29.1535C56.245 29.498 57.2206 29.8425 57.9699 30.187C58.7366 30.5315 59.3813 31.0664 59.9039 31.7916C60.4442 32.4988 60.714 33.4507 60.714 34.6473C60.714 35.6084 60.4616 36.5147 59.9564 37.3672C59.4682 38.2193 58.7453 38.9082 57.787 39.4339C56.8461 39.9416 55.731 40.1956 54.4414 40.1956Z" fill="black"/>
<path d="M70.1888 24.7754C71.3216 24.7754 72.332 25.0201 73.2208 25.5097C74.1266 25.9992 74.8324 26.7245 75.3376 27.6855C75.8428 28.6464 76.0956 29.8068 76.0956 31.1667V40.0058H73.1422V31.6291C73.1422 30.2873 72.8199 29.2629 72.1752 28.5558C71.5306 27.8305 70.6505 27.4679 69.5354 27.4679C68.4203 27.4679 67.5316 27.8305 66.8696 28.5558C66.2249 29.2629 65.9026 30.2873 65.9026 31.6291V40.0058H62.9231V25.0202H65.9026V26.7336C66.3904 26.1171 67.009 25.6366 67.7583 25.2921C68.525 24.9476 69.3352 24.7754 70.1888 24.7754Z" fill="black"/>
<path d="M77.5962 32.445C77.5962 30.94 77.8924 29.6074 78.4849 28.447C79.0948 27.2866 79.9136 26.3891 80.9415 25.7545C81.987 25.1018 83.1369 24.7754 84.3914 24.7754C85.5242 24.7754 86.5086 25.0111 87.3448 25.4825C88.1988 25.9358 88.8782 26.5069 89.3835 27.1959V25.0202H92.389V40.0058H89.3835V37.7756C88.8782 38.4826 88.1898 39.072 87.3188 39.5434C86.4474 40.0149 85.4544 40.2505 84.3393 40.2505C83.1021 40.2505 81.9696 39.9241 80.9415 39.2714C79.9136 38.6005 79.0948 37.6757 78.4849 36.4972C77.8924 35.3007 77.5962 33.95 77.5962 32.445ZM89.3835 32.4994C89.3835 31.4659 89.1745 30.5684 88.7562 29.8068C88.3556 29.0453 87.824 28.4651 87.162 28.0662C86.4999 27.6673 85.7854 27.4679 85.0187 27.4679C84.252 27.4679 83.5378 27.6673 82.8758 28.0662C82.2134 28.447 81.6734 29.0181 81.2551 29.7797C80.8545 30.523 80.6543 31.4115 80.6543 32.445C80.6543 33.4785 80.8545 34.3849 81.2551 35.1646C81.6734 35.9444 82.2134 36.5428 82.8758 36.9597C83.5552 37.3587 84.2697 37.5581 85.0187 37.5581C85.7854 37.5581 86.4999 37.3587 87.162 36.9597C87.824 36.5609 88.3556 35.9806 88.7562 35.2189C89.1745 34.4395 89.3835 33.5328 89.3835 32.4994Z" fill="black"/>
<path d="M97.9751 27.2231C98.4803 26.5341 99.1688 25.9539 100.04 25.4825C100.911 25.0111 101.895 24.7754 102.993 24.7754C104.248 24.7754 105.389 25.1018 106.417 25.7545C107.463 26.3891 108.281 27.2866 108.874 28.447C109.466 29.6074 109.762 30.94 109.762 32.445C109.762 33.95 109.466 35.3007 108.874 36.4972C108.281 37.6757 107.463 38.6005 106.417 39.2714C105.389 39.9241 104.248 40.2505 102.993 40.2505C101.895 40.2505 100.92 40.0239 100.066 39.5706C99.2122 39.0991 98.5154 38.5191 97.9751 37.8299V47.1313H94.9956V25.0202H97.9751V27.2231ZM106.731 32.445C106.731 31.4115 106.522 30.523 106.103 29.7797C105.703 29.0181 105.163 28.447 104.483 28.0662C103.821 27.6673 103.107 27.4679 102.34 27.4679C101.591 27.4679 100.876 27.6673 100.197 28.0662C99.5346 28.4651 98.9946 29.0453 98.5763 29.8068C98.1757 30.5684 97.9751 31.4659 97.9751 32.4994C97.9751 33.5328 98.1757 34.4395 98.5763 35.2189C98.9946 35.9806 99.5346 36.5609 100.197 36.9597C100.876 37.3587 101.591 37.5581 102.34 37.5581C103.107 37.5581 103.821 37.3587 104.483 36.9597C105.163 36.5428 105.703 35.9444 106.103 35.1646C106.522 34.3849 106.731 33.4785 106.731 32.445Z" fill="black"/>
<path d="M117.387 40.1956C116.168 40.1956 115.07 39.9781 114.094 39.5428C113.118 39.0895 112.351 38.4548 111.794 37.6389C111.236 36.823 110.958 35.8711 110.958 34.7834H114.146C114.216 35.5993 114.521 36.2701 115.061 36.7959C115.619 37.3216 116.394 37.5846 117.387 37.5846C118.415 37.5846 119.217 37.3307 119.792 36.823C120.366 36.2973 120.654 35.6264 120.654 34.8105C120.654 34.1759 120.471 33.6592 120.105 33.2603C119.757 32.8614 119.313 32.5531 118.772 32.3356C118.25 32.118 117.518 31.8823 116.577 31.6285C115.392 31.3021 114.425 30.9757 113.676 30.6494C112.944 30.3049 112.317 29.7791 111.794 29.0719C111.271 28.3648 111.01 27.422 111.01 26.2434C111.01 25.1555 111.271 24.2037 111.794 23.3877C112.317 22.5718 113.049 21.9463 113.99 21.5111C114.93 21.076 116.019 20.8584 117.256 20.8584C119.016 20.8584 120.454 21.3207 121.569 22.2455C122.701 23.152 123.329 24.4031 123.451 25.9986H120.157C120.105 25.3097 119.792 24.7204 119.217 24.2308C118.641 23.7413 117.883 23.4965 116.943 23.4965C116.089 23.4965 115.392 23.7232 114.852 24.1764C114.312 24.6297 114.042 25.2825 114.042 26.1346C114.042 26.7148 114.207 27.1953 114.538 27.5761C114.887 27.9387 115.322 28.2288 115.845 28.4464C116.368 28.664 117.082 28.8997 117.988 29.1535C119.191 29.498 120.166 29.8425 120.915 30.187C121.682 30.5315 122.327 31.0664 122.849 31.7916C123.39 32.4988 123.66 33.4507 123.66 34.6473C123.66 35.6084 123.407 36.5147 122.902 37.3672C122.414 38.2193 121.691 38.9082 120.733 39.4339C119.792 39.9416 118.676 40.1956 117.387 40.1956Z" fill="black"/>
<path d="M133.317 24.7754C134.415 24.7754 135.391 25.0201 136.245 25.5097C137.116 25.9992 137.795 26.7245 138.283 27.6855C138.788 28.6464 139.041 29.8068 139.041 31.1667V40.0058H136.088V31.629C136.088 30.2873 135.765 29.2629 135.121 28.5558C134.476 27.8305 133.596 27.4679 132.481 27.4679C131.366 27.4679 130.477 27.8305 129.815 28.5558C129.17 29.2629 128.848 30.2873 128.848 31.629V40.0058H125.869V19.8799H128.848V26.7608C129.353 26.1261 129.989 25.6366 130.756 25.2921C131.54 24.9476 132.394 24.7754 133.317 24.7754Z" fill="black"/>
<path d="M147.781 40.2505C146.422 40.2505 145.194 39.9331 144.096 39.2985C142.999 38.6458 142.136 37.7394 141.509 36.579C140.882 35.4005 140.568 34.0404 140.568 32.4994C140.568 30.9763 140.89 29.6255 141.535 28.447C142.18 27.2684 143.06 26.3619 144.175 25.7273C145.29 25.0927 146.536 24.7754 147.912 24.7754C149.289 24.7754 150.535 25.0927 151.65 25.7273C152.765 26.3619 153.644 27.2684 154.289 28.447C154.934 29.6255 155.256 30.9763 155.256 32.4994C155.256 34.0224 154.925 35.3731 154.263 36.5519C153.601 37.7303 152.695 38.6458 151.545 39.2985C150.412 39.9331 149.158 40.2505 147.781 40.2505ZM147.781 37.5581C148.548 37.5581 149.262 37.3678 149.925 36.9868C150.604 36.6061 151.153 36.0348 151.571 35.2735C151.989 34.5119 152.198 33.5871 152.198 32.4994C152.198 31.4115 151.998 30.4958 151.597 29.7524C151.197 28.9909 150.665 28.4198 150.003 28.039C149.341 27.6583 148.626 27.4679 147.86 27.4679C147.093 27.4679 146.379 27.6583 145.717 28.039C145.072 28.4198 144.558 28.9909 144.175 29.7524C143.791 30.4958 143.6 31.4115 143.6 32.4994C143.6 34.1132 143.992 35.364 144.776 36.2526C145.577 37.1228 146.579 37.5581 147.781 37.5581Z" fill="black"/>
<path d="M160.371 27.5493V35.8443C160.371 36.4066 160.493 36.8143 160.737 37.0683C160.998 37.3039 161.434 37.4218 162.043 37.4218H163.873V40.0056H161.521C160.179 40.0056 159.151 39.6793 158.437 39.0265C157.722 38.3738 157.365 37.3129 157.365 35.8443V27.5493H155.667V25.02H157.365V21.2939H160.371V25.02H163.873V27.5493H160.371Z" fill="black"/>
</svg>
