<svg width="156" height="64" viewBox="0 0 156 64" fill="none" xmlns="http://www.w3.org/2000/svg">
<path d="M70.3099 22.4326C70.7226 22.8648 71.3521 23.0809 72.1981 23.0809C73.0442 23.0809 73.6634 22.8648 74.0554 22.4326C74.4478 21.9798 74.6436 21.424 74.6436 20.7654C74.6436 20.0656 74.4478 19.4996 74.0554 19.0673C73.6634 18.6351 73.0442 18.4189 72.1981 18.4189C71.3521 18.4189 70.7226 18.6351 70.3099 19.0673C69.9175 19.4996 69.7217 20.0656 69.7217 20.7654C69.7217 21.424 69.9175 21.9798 70.3099 22.4326Z" fill="black"/>
<path d="M50.6582 25.0879L55.9209 41.8526H62.824L67.3745 25.0879H63.2267L59.8025 38.3329H59.0715L55.0852 25.0879H50.6582Z" fill="black"/>
<path d="M84.4318 42.3773C82.1205 42.3773 80.3042 41.8936 78.9836 40.9263C77.6836 39.9383 77.0024 38.5796 76.9404 36.8509H80.8098C80.8718 37.4273 81.1919 37.9521 81.7694 38.4255C82.3473 38.8989 83.2557 39.1354 84.4937 39.1354C85.5256 39.1354 86.3406 38.9504 86.9392 38.5796C87.5584 38.2092 87.8678 37.705 87.8678 37.0668C87.8678 36.5112 87.6307 36.0686 87.156 35.7393C86.702 35.41 85.9176 35.1939 84.8031 35.091L83.3173 34.9366C81.4394 34.7308 79.9948 34.1956 78.9836 33.3311C77.9723 32.4667 77.4667 31.314 77.4667 29.8732C77.4667 28.7206 77.7555 27.7532 78.3334 26.9711C78.9113 26.1889 79.706 25.6023 80.7173 25.2112C81.7488 24.7996 82.9252 24.5938 84.2462 24.5938C86.3096 24.5938 87.9814 25.0466 89.2611 25.9522C90.5405 26.8579 91.2113 28.1854 91.2733 29.935H87.4035C87.3622 29.3587 87.0734 28.8647 86.5368 28.453C86.0002 28.0414 85.2265 27.8355 84.2153 27.8355C83.3069 27.8355 82.6055 28.0105 82.1102 28.3604C81.6149 28.7103 81.3671 29.1631 81.3671 29.7189C81.3671 30.254 81.5633 30.6657 81.9553 30.9538C82.368 31.242 83.0285 31.4375 83.9365 31.5404L85.4223 31.6948C87.4035 31.9006 88.9513 32.4461 90.0658 33.3311C91.201 34.2162 91.7685 35.41 91.7685 36.9127C91.7685 38.0239 91.4588 38.9912 90.8399 39.8148C90.2414 40.6173 89.395 41.2452 88.3015 41.698C87.2077 42.1508 85.9176 42.3773 84.4318 42.3773Z" fill="black"/>
<path d="M94.2705 22.4326C94.6835 22.8648 95.3127 23.0809 96.1591 23.0809C97.0051 23.0809 97.6243 22.8648 98.0163 22.4326C98.4083 21.9798 98.6045 21.424 98.6045 20.7654C98.6045 20.0656 98.4083 19.4996 98.0163 19.0673C97.6243 18.6351 97.0051 18.4189 96.1591 18.4189C95.3127 18.4189 94.6835 18.6351 94.2705 19.0673C93.8784 19.4996 93.6826 20.0656 93.6826 20.7654C93.6826 21.424 93.8784 21.9798 94.2705 22.4326Z" fill="black"/>
<path fill-rule="evenodd" clip-rule="evenodd" d="M110.374 42.439C108.888 42.439 107.578 42.2021 106.443 41.7287C105.307 41.2553 104.348 40.6172 103.563 39.8146C102.779 38.9911 102.181 38.0649 101.768 37.0357C101.376 36.0067 101.18 34.9364 101.18 33.825V33.1766C101.18 32.024 101.386 30.9331 101.799 29.9039C102.232 28.8542 102.841 27.928 103.625 27.1253C104.43 26.302 105.4 25.6639 106.536 25.2111C107.67 24.7377 108.95 24.501 110.374 24.501C111.798 24.501 113.078 24.7377 114.212 25.2111C115.348 25.6639 116.307 26.302 117.092 27.1253C117.896 27.928 118.505 28.8542 118.918 29.9039C119.331 30.9331 119.537 32.024 119.537 33.1766V33.825C119.537 34.9364 119.331 36.0067 118.918 37.0357C118.526 38.0649 117.938 38.9911 117.154 39.8146C116.369 40.6172 115.409 41.2553 114.274 41.7287C113.14 42.2021 111.839 42.439 110.374 42.439ZM110.374 38.7648C111.427 38.7648 112.314 38.5383 113.036 38.0855C113.758 37.6121 114.305 36.9843 114.677 36.2023C115.048 35.3996 115.234 34.4939 115.234 33.4853C115.234 32.4562 115.038 31.5506 114.646 30.7684C114.274 29.9657 113.717 29.3379 112.974 28.8851C112.252 28.4117 111.385 28.175 110.374 28.175C109.363 28.175 108.486 28.4117 107.743 28.8851C107.021 29.3379 106.463 29.9657 106.071 30.7684C105.679 31.5506 105.483 32.4562 105.483 33.4853C105.483 34.4939 105.669 35.3996 106.04 36.2023C106.432 36.9843 106.99 37.6121 107.712 38.0855C108.434 38.5383 109.321 38.7648 110.374 38.7648Z" fill="black"/>
<path d="M125.534 28.0214C125.386 28.3902 125.262 28.7896 125.162 29.2196V25.0884H121.757V41.853H126.06V32.0041C126.06 30.9132 126.38 30.0488 127.02 29.4107C127.68 28.7521 128.536 28.4228 129.589 28.4228C130.621 28.4228 131.426 28.7418 132.003 29.3798C132.602 30.0179 132.901 30.8515 132.901 31.8806V41.853H137.204V32.2511C137.204 29.6989 136.688 27.7847 135.656 26.5085C134.624 25.2118 133.108 24.5635 131.106 24.5635H130.92C129.579 24.5635 128.454 24.8516 127.546 25.428C126.658 26.0043 125.988 26.8687 125.534 28.0214Z" fill="black"/>
<path d="M70.6194 28.2988V41.8526H74.9225V25.0879H68.2668V28.2988H70.6194Z" fill="black"/>
<path d="M94.5802 28.2988V41.8526H98.8829V25.0879H92.2273V28.2988H94.5802Z" fill="black"/>
<path fill-rule="evenodd" clip-rule="evenodd" d="M32.0484 45.2978C39.4904 45.2978 45.5235 39.2807 45.5235 31.8584C45.5235 24.436 39.4904 18.4189 32.0484 18.4189C24.6063 18.4189 18.5732 24.436 18.5732 31.8584C18.5732 39.2807 24.6063 45.2978 32.0484 45.2978ZM41.9654 30.4638C40.7089 31.9292 38.9391 32.8418 36.9782 32.8418C33.1662 32.8418 30.0762 29.393 30.0762 25.1387C30.0762 24.0684 30.2717 23.0491 30.6252 22.1228C25.8487 22.8463 22.1884 26.9596 22.1884 31.9256C22.1884 33.3745 22.5 34.7508 23.06 35.9915C23.6281 35.4644 24.4265 35.1364 25.3107 35.1364C27.0351 35.1364 28.433 36.3839 28.433 37.9227C28.433 38.9559 27.8027 39.8578 26.8665 40.3389C28.3931 41.2908 30.1973 41.8414 32.1305 41.8414C37.6214 41.8414 42.0727 37.4019 42.0727 31.9256C42.0727 31.4289 42.0358 30.9408 41.9654 30.4638Z" fill="black"/>
<mask id="mask0_217_150" style="mask-type:luminance" maskUnits="userSpaceOnUse" x="18" y="18" width="28" height="28">
<path fill-rule="evenodd" clip-rule="evenodd" d="M32.0484 45.2978C39.4904 45.2978 45.5235 39.2807 45.5235 31.8584C45.5235 24.436 39.4904 18.4189 32.0484 18.4189C24.6063 18.4189 18.5732 24.436 18.5732 31.8584C18.5732 39.2807 24.6063 45.2978 32.0484 45.2978ZM41.9654 30.4638C40.7089 31.9292 38.9391 32.8418 36.9782 32.8418C33.1662 32.8418 30.0762 29.393 30.0762 25.1387C30.0762 24.0684 30.2717 23.0491 30.6252 22.1228C25.8487 22.8463 22.1884 26.9596 22.1884 31.9256C22.1884 33.3745 22.5 34.7508 23.06 35.9915C23.6281 35.4644 24.4265 35.1364 25.3107 35.1364C27.0351 35.1364 28.433 36.3839 28.433 37.9227C28.433 38.9559 27.8027 39.8578 26.8665 40.3389C28.3931 41.2908 30.1973 41.8414 32.1305 41.8414C37.6214 41.8414 42.0727 37.4019 42.0727 31.9256C42.0727 31.4289 42.0358 30.9408 41.9654 30.4638Z" fill="black"/>
</mask>
<g mask="url(#mask0_217_150)">
<path d="M41.9653 30.4637L42.9404 30.32L42.6239 28.1824L41.2159 29.8246L41.9653 30.4637ZM30.6251 22.1228L31.5466 22.4726L32.1476 20.8975L30.477 21.1505L30.6251 22.1228ZM23.0599 35.9915L22.1608 36.3951L22.7251 37.6453L23.7315 36.7115L23.0599 35.9915ZM26.8664 40.3389L26.4148 39.4646L24.8743 40.2561L26.3436 41.1727L26.8664 40.3389ZM44.5376 31.8584C44.5376 38.7378 38.946 44.3146 32.0483 44.3146V46.2813C40.035 46.2813 46.5096 39.8239 46.5096 31.8584H44.5376ZM32.0483 19.4023C38.946 19.4023 44.5376 24.9791 44.5376 31.8584H46.5096C46.5096 23.8929 40.035 17.4355 32.0483 17.4355V19.4023ZM19.5591 31.8584C19.5591 24.9791 25.1507 19.4023 32.0483 19.4023V17.4355C24.0616 17.4355 17.5872 23.8929 17.5872 31.8584H19.5591ZM32.0483 44.3146C25.1507 44.3146 19.5591 38.7378 19.5591 31.8584H17.5872C17.5872 39.8239 24.0616 46.2813 32.0483 46.2813V44.3146ZM36.9781 33.8251C39.2591 33.8251 41.2926 32.7614 42.7147 31.1029L41.2159 29.8246C40.125 31.0969 38.6188 31.8584 36.9781 31.8584V33.8251ZM29.09 25.1387C29.09 29.8291 32.5202 33.8251 36.9781 33.8251V31.8584C33.812 31.8584 31.062 28.9568 31.062 25.1387H29.09ZM29.7036 21.773C29.3076 22.8107 29.09 23.9486 29.09 25.1387H31.062C31.062 24.1881 31.2357 23.2873 31.5466 22.4726L29.7036 21.773ZM23.1743 31.9255C23.1743 27.453 26.4712 23.7466 30.7731 23.095L30.477 21.1505C25.2259 21.946 21.2023 26.4662 21.2023 31.9255H23.1743ZM23.959 35.5878C23.4552 34.4715 23.1743 33.2326 23.1743 31.9255H21.2023C21.2023 33.5163 21.5447 35.03 22.1608 36.3951L23.959 35.5878ZM25.3106 34.153C24.1823 34.153 23.1426 34.5717 22.3883 35.2715L23.7315 36.7115C24.1134 36.3571 24.6704 36.1198 25.3106 36.1198V34.153ZM29.4189 37.9227C29.4189 35.7407 27.4736 34.153 25.3106 34.153V36.1198C26.5965 36.1198 27.4469 37.027 27.4469 37.9227H29.4189ZM27.3179 41.2132C28.5316 40.5893 29.4189 39.3778 29.4189 37.9227H27.4469C27.4469 38.534 27.0737 39.1262 26.4148 39.4646L27.3179 41.2132ZM32.1304 40.8579C30.3874 40.8579 28.7635 40.3624 27.3892 39.505L26.3436 41.1727C28.0223 42.2195 30.007 42.8246 32.1304 42.8246V40.8579ZM41.0864 31.9255C41.0864 36.8586 37.0765 40.8579 32.1304 40.8579V42.8246C38.1656 42.8246 43.0584 37.9448 43.0584 31.9255H41.0864ZM40.9898 30.6075C41.0532 31.0371 41.0864 31.4771 41.0864 31.9255H43.0584C43.0584 31.3806 43.0182 30.8445 42.9404 30.32L40.9898 30.6075Z" fill="black"/>
</g>
</svg>
