<svg width="162" height="64" viewBox="0 0 162 64" fill="none" xmlns="http://www.w3.org/2000/svg">
<path fill-rule="evenodd" clip-rule="evenodd" d="M22.6919 25.1695C24.8058 22.3233 28.191 20.4793 32.0065 20.4793C35.8443 20.4793 39.2467 22.3451 41.3581 25.2198C41.2683 25.3124 41.1864 25.4082 41.1124 25.504C40.7256 26.0053 40.4346 26.651 40.2015 27.3068C39.732 28.6256 39.3739 30.3484 39.0423 31.9616L39.0129 32.1066C38.6821 33.7168 38.3746 35.2143 38.0028 36.326C37.8358 36.8254 37.6774 37.1785 37.5369 37.4047C37.3904 37.1767 37.2241 36.8193 37.048 36.3127C36.6504 35.1691 36.316 33.6137 35.9615 31.9528L35.95 31.8984C35.6093 30.3031 35.2479 28.6103 34.7973 27.3147C34.571 26.6638 34.2932 26.0245 33.9299 25.5278C33.5734 25.0404 32.9799 24.4903 32.1119 24.4903C31.2494 24.4903 30.6532 25.0344 30.2915 25.5164C29.9212 26.0098 29.6325 26.6465 29.3947 27.2977C28.9158 28.609 28.5242 30.3243 28.1598 31.9397L28.1221 32.1066C27.7613 33.7068 27.424 35.2029 27.041 36.3167C26.8949 36.742 26.7569 37.0656 26.6321 37.2968C26.51 37.0667 26.3756 36.7453 26.2333 36.3235C25.866 35.2334 25.5442 33.7793 25.1986 32.2174L25.1381 31.944C24.7799 30.3277 24.3914 28.6093 23.9057 27.2938C23.6643 26.6402 23.3691 26.0004 22.9871 25.5046C22.9006 25.3924 22.8023 25.2785 22.6919 25.1695ZM21.4124 27.355C21.5131 27.554 21.6196 27.8007 21.7297 28.0989C22.1502 29.2375 22.5064 30.7911 22.8732 32.4468L22.9446 32.7694C23.2786 34.2801 23.626 35.8516 24.0352 37.0656C24.2529 37.7114 24.5157 38.3438 24.8537 38.8353C25.1734 39.3002 25.7468 39.9007 26.6286 39.9007C27.5079 39.9007 28.0827 39.3031 28.4046 38.8404C28.7455 38.3499 29.0126 37.7182 29.2347 37.0721C29.6603 35.834 30.0227 34.2257 30.3696 32.6865L30.4226 32.4512C30.7964 30.7945 31.1561 29.2377 31.5735 28.095C31.7668 27.5656 31.9479 27.1968 32.1055 26.9679C32.2549 27.1948 32.4255 27.5577 32.6064 28.0781C33.0042 29.2217 33.3383 30.7772 33.6929 32.4381L33.7045 32.4925C34.0451 34.0878 34.4065 35.7805 34.8571 37.0761C35.0834 37.7272 35.3612 38.3665 35.7245 38.863C36.0811 39.3506 36.6745 39.9007 37.5423 39.9007C38.4148 39.9007 39.0061 39.3455 39.3584 38.8537C39.7162 38.3546 39.9852 37.7132 40.2026 37.0631C40.6203 35.8145 40.9526 34.1944 41.269 32.6531L41.3146 32.4293C41.6555 30.7704 41.9828 29.2211 42.3869 28.0859C42.4745 27.839 42.5607 27.6284 42.643 27.4516C43.2622 28.8722 43.6056 30.4409 43.6056 32.0898C43.6056 38.502 38.4127 43.7004 32.0065 43.7004C25.6004 43.7004 20.4072 38.502 20.4072 32.0898C20.4072 30.4034 20.7664 28.801 21.4124 27.355ZM32.0065 18.1572C24.3192 18.1572 18.0874 24.3951 18.0874 32.0898C18.0874 39.7846 24.3192 46.0224 32.0065 46.0224C39.6939 46.0224 45.9254 39.7846 45.9254 32.0898C45.9254 24.3951 39.6939 18.1572 32.0065 18.1572ZM32.2716 26.7736C32.2716 26.7739 32.2689 26.776 32.2635 26.7792C32.2689 26.7749 32.2716 26.7733 32.2716 26.7736ZM31.951 26.7751C31.9456 26.7718 31.943 26.7696 31.943 26.7693C31.943 26.769 31.9457 26.7707 31.951 26.7751ZM37.3659 37.6251C37.3659 37.6251 37.3685 37.6226 37.3735 37.6193C37.3685 37.6237 37.3659 37.6254 37.3659 37.6251ZM37.7032 37.6157C37.7086 37.619 37.7115 37.6211 37.7115 37.6215C37.7115 37.6219 37.7086 37.6201 37.7032 37.6157ZM26.3909 37.6459C26.3909 37.6456 26.3942 37.6423 26.4009 37.6377C26.3943 37.6438 26.3909 37.6463 26.3909 37.6459ZM26.8607 37.6398C26.8674 37.6445 26.8707 37.6477 26.8707 37.6481C26.8706 37.6485 26.8673 37.6463 26.8607 37.6398Z" fill="black"/>
<path d="M53.6113 40.3383L50.2358 28.7812H53.1924L55.1943 37.0995L57.5219 28.7812H60.8273L63.1552 37.0995L65.1804 28.7812H68.1367L64.7383 40.3383H61.6423L59.1746 31.6938L56.7072 40.3383H53.6113Z" fill="black"/>
<path d="M72.4747 40.6183C71.4815 40.6183 70.6669 40.4627 70.0307 40.152C69.3946 39.8259 68.9211 39.3987 68.6108 38.8706C68.3004 38.3424 68.1453 37.7599 68.1453 37.1231C68.1453 36.0513 68.5641 35.1814 69.4021 34.5135C70.2401 33.8455 71.4973 33.5115 73.1734 33.5115H76.1063V33.2319C76.1063 32.4397 75.881 31.8572 75.4313 31.4844C74.9812 31.1116 74.4223 30.9252 73.7553 30.9252C73.15 30.9252 72.6224 31.0727 72.1723 31.3679C71.7222 31.6475 71.4427 32.0669 71.3343 32.6261H68.4244C68.5023 31.7873 68.7814 31.0572 69.2624 30.4359C69.7592 29.8145 70.3953 29.3407 71.1712 29.0146C71.9474 28.6728 72.8163 28.502 73.7783 28.502C75.4234 28.502 76.7191 28.9136 77.6659 29.7369C78.6124 30.5601 79.0858 31.7252 79.0858 33.2319V40.3386H76.5484L76.2693 38.4747C75.9277 39.096 75.4468 39.6084 74.8261 40.0125C74.2208 40.4163 73.437 40.6183 72.4747 40.6183ZM73.15 38.2881C74.0035 38.2881 74.663 38.0084 75.1285 37.4493C75.6095 36.8902 75.9123 36.1987 76.0366 35.3756H73.4992C72.7075 35.3756 72.1414 35.5231 71.7998 35.8183C71.4585 36.0977 71.2876 36.4476 71.2876 36.8668C71.2876 37.3173 71.4585 37.6668 71.7998 37.9152C72.1414 38.1637 72.5911 38.2881 73.15 38.2881Z" fill="black"/>
<path d="M83.7762 40.3383L79.5398 28.7812H82.6587L85.592 37.5191L88.5249 28.7812H91.6442L87.3844 40.3383H83.7762Z" fill="black"/>
<path d="M97.634 40.6183C96.4702 40.6183 95.4382 40.3695 94.538 39.8726C93.6382 39.3754 92.932 38.6764 92.4198 37.7754C91.9076 36.8747 91.6519 35.8338 91.6519 34.6533C91.6519 33.4572 91.9001 32.3931 92.3965 31.4611C92.9087 30.5291 93.607 29.8068 94.4917 29.2942C95.3915 28.766 96.4468 28.502 97.6573 28.502C98.7903 28.502 99.7914 28.7505 100.66 29.2476C101.529 29.7446 102.204 30.4281 102.685 31.298C103.182 32.1523 103.43 33.1077 103.43 34.1639C103.43 34.3348 103.423 34.5135 103.407 34.6998C103.407 34.8863 103.399 35.0804 103.384 35.2824H94.6081C94.6702 36.1833 94.9806 36.8902 95.5391 37.4029C96.1131 37.9152 96.8039 38.1716 97.611 38.1716C98.2159 38.1716 98.7206 38.0396 99.124 37.7754C99.5428 37.496 99.8531 37.1386 100.055 36.7036H103.081C102.864 37.4338 102.499 38.1018 101.987 38.7077C101.49 39.2977 100.87 39.7637 100.125 40.1056C99.3955 40.4472 98.5651 40.6183 97.634 40.6183ZM97.6573 30.9252C96.9282 30.9252 96.2841 31.1349 95.7252 31.5543C95.1666 31.9582 94.8096 32.5795 94.6544 33.4183H100.404C100.357 32.6572 100.078 32.0514 99.5661 31.6009C99.0539 31.1504 98.4178 30.9252 97.6573 30.9252Z" fill="black"/>
<path d="M105.005 40.3379V23.5615H107.985V40.3379H105.005Z" fill="black"/>
<path d="M115.708 40.6183C114.544 40.6183 113.512 40.3695 112.612 39.8726C111.712 39.3754 111.006 38.6764 110.494 37.7754C109.982 36.8747 109.726 35.8338 109.726 34.6533C109.726 33.4572 109.974 32.3931 110.47 31.4611C110.983 30.5291 111.681 29.8068 112.566 29.2942C113.466 28.766 114.521 28.502 115.731 28.502C116.864 28.502 117.865 28.7505 118.734 29.2476C119.603 29.7446 120.278 30.4281 120.759 31.298C121.256 32.1523 121.504 33.1077 121.504 34.1639C121.504 34.3348 121.497 34.5135 121.481 34.6998C121.481 34.8863 121.473 35.0804 121.458 35.2824H112.682C112.744 36.1833 113.055 36.8902 113.613 37.4029C114.187 37.9152 114.878 38.1716 115.685 38.1716C116.29 38.1716 116.795 38.0396 117.198 37.7754C117.617 37.496 117.927 37.1386 118.129 36.7036H121.155C120.938 37.4338 120.573 38.1018 120.061 38.7077C119.564 39.2977 118.944 39.7637 118.199 40.1056C117.469 40.4472 116.639 40.6183 115.708 40.6183ZM115.731 30.9252C115.002 30.9252 114.358 31.1349 113.799 31.5543C113.241 31.9582 112.884 32.5795 112.728 33.4183H118.478C118.431 32.6572 118.152 32.0514 117.64 31.6009C117.128 31.1504 116.492 30.9252 115.731 30.9252Z" fill="black"/>
<path d="M127.851 40.6183C126.827 40.6183 125.927 40.4551 125.151 40.129C124.375 39.7871 123.754 39.3211 123.288 38.7307C122.823 38.1407 122.544 37.4572 122.45 36.6805H125.453C125.546 37.1307 125.795 37.5194 126.198 37.8455C126.617 38.1561 127.153 38.3115 127.804 38.3115C128.456 38.3115 128.93 38.1795 129.224 37.9152C129.535 37.6513 129.69 37.3482 129.69 37.0067C129.69 36.5094 129.473 36.1754 129.038 36.0046C128.604 35.8183 127.998 35.6396 127.222 35.4688C126.726 35.36 126.222 35.228 125.709 35.0727C125.197 34.9173 124.724 34.7231 124.29 34.4902C123.87 34.2416 123.529 33.931 123.265 33.5581C123.001 33.1698 122.87 32.696 122.87 32.1368C122.87 31.1116 123.273 30.2495 124.08 29.5505C124.902 28.8514 126.051 28.502 127.525 28.502C128.891 28.502 129.977 28.8204 130.784 29.4572C131.606 30.0942 132.095 30.9718 132.251 32.0902H129.434C129.263 31.2359 128.619 30.8087 127.502 30.8087C126.943 30.8087 126.509 30.9174 126.198 31.1349C125.903 31.3524 125.756 31.6242 125.756 31.9504C125.756 32.2922 125.981 32.564 126.431 32.7659C126.881 32.9679 127.479 33.1542 128.224 33.3251C129.03 33.5115 129.767 33.7212 130.435 33.9542C131.118 34.1717 131.661 34.5057 132.064 34.9562C132.468 35.3911 132.669 36.02 132.669 36.8434C132.685 37.5582 132.499 38.2025 132.111 38.7774C131.723 39.352 131.164 39.8025 130.435 40.129C129.706 40.4551 128.844 40.6183 127.851 40.6183Z" fill="black"/>
<path d="M139.15 40.6183C138.126 40.6183 137.226 40.4551 136.45 40.129C135.674 39.7871 135.053 39.3211 134.588 38.7307C134.122 38.1407 133.843 37.4572 133.75 36.6805H136.752C136.845 37.1307 137.094 37.5194 137.497 37.8455C137.916 38.1561 138.451 38.3115 139.103 38.3115C139.755 38.3115 140.228 38.1795 140.523 37.9152C140.834 37.6513 140.989 37.3482 140.989 37.0067C140.989 36.5094 140.772 36.1754 140.337 36.0046C139.903 35.8183 139.297 35.6396 138.522 35.4688C138.025 35.36 137.52 35.228 137.008 35.0727C136.496 34.9173 136.023 34.7231 135.588 34.4902C135.169 34.2416 134.828 33.931 134.564 33.5581C134.3 33.1698 134.168 32.696 134.168 32.1368C134.168 31.1116 134.572 30.2495 135.379 29.5505C136.201 28.8514 137.35 28.502 138.824 28.502C140.19 28.502 141.276 28.8204 142.083 29.4572C142.905 30.0942 143.394 30.9718 143.549 32.0902H140.733C140.562 31.2359 139.918 30.8087 138.801 30.8087C138.242 30.8087 137.807 30.9174 137.497 31.1349C137.202 31.3524 137.055 31.6242 137.055 31.9504C137.055 32.2922 137.28 32.564 137.73 32.7659C138.18 32.9679 138.777 33.1542 139.522 33.3251C140.329 33.5115 141.066 33.7212 141.734 33.9542C142.417 34.1717 142.96 34.5057 143.363 34.9562C143.767 35.3911 143.968 36.02 143.968 36.8434C143.984 37.5582 143.798 38.2025 143.41 38.7774C143.022 39.352 142.463 39.8025 141.734 40.129C141.004 40.4551 140.143 40.6183 139.15 40.6183Z" fill="black"/>
</svg>
