<svg width="150" height="64" viewBox="0 0 150 64" fill="none" xmlns="http://www.w3.org/2000/svg">
<path d="M54.2185 21.472V17.3457H74.9609V21.472H66.9545V45.8966H62.308V21.472H54.2185Z" fill="black"/>
<path d="M87.6664 42.145L88.8282 42.02L88.911 45.3962C85.7583 46.0353 82.9648 46.3547 80.531 46.3547C77.4611 46.3547 75.2487 45.5071 73.8936 43.8123C72.566 42.1172 71.9021 39.408 71.9021 35.6846C71.9021 28.2933 74.903 24.5977 80.9045 24.5977C86.7124 24.5977 89.6164 27.7792 89.6164 34.1423L89.326 37.3935H76.4654C76.4932 39.1161 76.8664 40.3805 77.5857 41.1862C78.3046 41.9922 79.6462 42.395 81.6097 42.395C83.5734 42.395 85.5921 42.3116 87.6664 42.145ZM85.1774 33.8923C85.1774 31.8362 84.8454 30.4052 84.1818 29.5993C83.5456 28.7657 82.4532 28.3489 80.9045 28.3489C79.3558 28.3489 78.2218 28.7795 77.5026 29.6409C76.8112 30.5024 76.4517 31.9194 76.4242 33.8923H85.1774Z" fill="black"/>
<path d="M91.8901 45.8962V25.0562H96.3704V27.5569C98.7211 26.0287 101.072 25.0422 103.423 24.5977V29.1408C101.044 29.6132 99.0116 30.2246 97.3245 30.9746L96.4119 31.35V45.8962H91.8901Z" fill="black"/>
<path d="M104.805 45.8962V25.0562H109.286V27.5569C111.637 26.0287 113.987 25.0422 116.338 24.5977V29.1408C113.96 29.6132 111.927 30.2246 110.24 30.9746L109.327 31.35V45.8962H104.805Z" fill="black"/>
<path d="M133.07 31.475V40.9781C133.098 41.5894 133.25 42.0478 133.527 42.3535C133.831 42.6313 134.287 42.8119 134.896 42.8951L134.771 46.3547C132.393 46.3547 130.554 45.8406 129.254 44.8124C127.041 45.8406 124.815 46.3547 122.575 46.3547C118.454 46.3547 116.393 44.1458 116.393 39.7277C116.393 37.6157 116.946 36.0875 118.053 35.1427C119.187 34.198 120.915 33.6282 123.238 33.4338L128.59 32.9754V31.475C128.59 30.3633 128.341 29.5854 127.843 29.1408C127.373 28.6962 126.668 28.4739 125.727 28.4739C123.958 28.4739 121.745 28.5851 119.09 28.8074L117.762 28.8907L117.596 25.6813C120.611 24.9589 123.377 24.5977 125.894 24.5977C128.438 24.5977 130.263 25.1534 131.369 26.2649C132.503 27.3485 133.07 29.0852 133.07 31.475ZM123.778 36.6431C121.87 36.81 120.915 37.8519 120.915 39.7692C120.915 41.6866 121.759 42.6451 123.446 42.6451C124.829 42.6451 126.295 42.4229 127.843 41.9781L128.59 41.7281V36.1846L123.778 36.6431Z" fill="black"/>
<path fill-rule="evenodd" clip-rule="evenodd" d="M41.6685 14.9531C45.2784 14.9531 48.2903 17.516 48.9868 20.9229C49.0863 21.4097 49.1386 21.9136 49.1386 22.4298V41.5699C49.1386 45.6991 45.7941 49.0466 41.6685 49.0466H22.5451C21.7283 49.0466 20.9422 48.9153 20.2065 48.6731C17.2263 47.6906 15.075 44.8818 15.075 41.5699V22.4298C15.075 18.3005 18.4194 14.9531 22.5451 14.9531H41.6685ZM38.6386 17.3456H41.6685C44.1441 17.3456 46.2062 19.1182 46.6568 21.4644C45.2192 21.6275 43.5758 21.4764 41.8403 20.7321C40.3027 20.0724 39.2826 18.8502 38.6386 17.3456ZM31.5459 17.3456H36.0862C36.8407 19.6184 38.2857 21.8103 40.8988 22.9311C42.9949 23.8302 44.9856 24.0388 46.7482 23.8636V26.3082C44.3551 27.0665 41.9703 27.3734 40.0621 26.8144C39.1143 26.5367 38.0267 25.7996 36.8563 24.6399C35.702 23.4961 34.5501 22.0251 33.4624 20.417C32.7865 19.4178 32.1429 18.3769 31.5459 17.3456ZM28.8006 17.3456H25.6375C25.7816 20.053 25.1443 23.3599 22.7734 26.71C21.2026 28.9295 19.3451 30.1501 17.4654 30.6953V35.4651C18.598 34.7767 19.9315 33.8364 21.4926 32.5669C25.1813 29.5671 28.0867 28.3736 30.2897 28.1553C32.48 27.9382 34.037 28.6986 34.7228 29.6598C35.4429 30.6687 35.8499 32.0208 36.0032 33.4467C36.1583 34.89 36.0638 36.4999 35.6999 38.0975C34.9771 41.2736 33.1415 44.5794 29.8349 46.3616C29.6548 46.4588 29.4731 46.5563 29.29 46.6541H33.0056C34.4587 44.8076 35.6216 42.9732 36.0387 41.5356C36.5094 39.9125 36.7027 38.192 36.8832 36.5836L36.8835 36.5833V36.5827C36.9483 36.0052 37.0116 35.4418 37.0855 34.9026C37.2136 33.9683 37.3905 32.9784 37.7703 32.2645C37.9714 31.8868 38.2908 31.4663 38.8048 31.2235C39.3459 30.9678 39.9092 30.9992 40.4031 31.164C41.7877 31.626 43.6284 31.7217 46.7482 30.9394V28.8054C44.3422 29.4839 41.719 29.7926 39.3904 29.1106C37.888 28.6704 36.4618 27.6157 35.1746 26.3402C33.8712 25.0487 32.6216 23.4413 31.4832 21.7584C30.5094 20.3188 29.6028 18.8027 28.8006 17.3456ZM46.7482 33.4001C43.776 34.081 41.6386 34.0526 39.8309 33.4928C39.6973 33.8059 39.5727 34.361 39.4538 35.228C39.3946 35.6586 39.3399 36.1482 39.2805 36.6775C39.0958 38.3272 38.8678 40.3632 38.3342 42.2025C37.9254 43.6123 37.0409 45.1611 35.9897 46.6541H38.3945C38.8382 45.5499 39.2467 44.4984 39.5676 43.6147C39.9124 42.6648 40.1282 41.9818 40.1978 41.6342C40.3296 40.9742 40.5809 40.2639 41.1704 39.7606C41.7836 39.2366 42.5365 39.1242 43.242 39.1601C43.9367 39.1957 44.7513 39.3829 45.6701 39.6467C46.0042 39.7424 46.3633 39.8518 46.7482 39.9735V33.4001ZM46.6705 42.4609C46.0466 42.2581 45.4974 42.0861 45.0109 41.9465C44.1232 41.6914 43.5277 41.5702 43.1207 41.5496C42.8578 41.5362 42.7514 41.5688 42.7209 41.5822C42.7036 41.6025 42.6187 41.7183 42.5419 42.1035C42.432 42.6532 42.1538 43.4965 41.8143 44.4317C41.5708 45.1028 41.2813 45.8594 40.9678 46.6541H41.6685C44.1704 46.6541 46.2498 44.8438 46.6705 42.4609ZM24.1322 46.6541C25.6977 45.846 27.2777 45.0224 28.7016 44.255C31.2217 42.8969 32.7477 40.2965 33.3692 37.5661C33.6779 36.2104 33.7514 34.8667 33.6265 33.7027C33.4995 32.5211 33.1783 31.6117 32.7776 31.0503C32.7166 30.9648 32.1074 30.3795 30.5252 30.5362C28.9558 30.6917 26.4826 31.5916 23 34.4238C20.82 36.1966 18.9956 37.4111 17.4654 38.2141V40.9123C17.8426 40.5669 18.2685 40.2783 18.6622 40.0322C19.0632 39.7812 19.5002 39.5345 19.9296 39.2935L20.0361 39.2336C20.4372 39.0088 20.8354 38.7853 21.2307 38.5485C22.0956 38.0299 22.8733 37.4883 23.4713 36.8582C24.5067 35.7672 26.0011 34.4653 27.4061 33.5765C28.0992 33.1378 28.8477 32.7499 29.554 32.572C30.2168 32.4048 31.2444 32.3369 31.9606 33.1563C32.6422 33.936 32.9246 35.1053 32.4283 36.6231C31.9568 38.0649 30.7726 39.885 28.4837 42.2524C26.1078 44.7095 23.7318 45.9405 21.7287 46.3329C21.5028 46.3771 21.2805 46.4106 21.0627 46.4342C21.5317 46.5772 22.0294 46.6541 22.5451 46.6541H24.1322ZM17.4654 28.164C18.6235 27.6832 19.7773 26.8042 20.8227 25.327C22.8869 22.4104 23.3858 19.5821 23.2437 17.3456H22.5451C19.7396 17.3456 17.4654 19.6219 17.4654 22.4298V28.164ZM42.7185 41.5834C42.7128 41.5861 42.7104 41.5879 42.7107 41.5879C42.711 41.5882 42.7122 41.5876 42.7143 41.5861L42.7158 41.5852L42.7185 41.5834ZM28.6833 35.5988C27.4795 36.3602 26.1351 37.5254 25.2045 38.506C24.3833 39.3712 23.387 40.0447 22.459 40.601C22.0326 40.8564 21.605 41.0962 21.2086 41.3187L21.0989 41.3803C20.6645 41.6241 20.2751 41.8445 19.9291 42.061C19.1829 42.5276 18.8711 42.8416 18.7733 43.0422C18.7453 43.1 18.7419 43.1329 18.7506 43.1831C18.7629 43.2549 18.8143 43.4203 19.019 43.6933L19.0389 43.7199L19.0573 43.7474C19.0585 43.7489 19.0854 43.7863 19.1709 43.8387C19.2593 43.8928 19.3961 43.9538 19.5903 44.0016C19.9807 44.0979 20.549 44.1258 21.2697 43.9846C22.7029 43.7041 24.6597 42.7668 26.7659 40.5884C28.9591 38.3203 29.8511 36.8118 30.1565 35.879C30.3381 35.3234 30.3008 35.0225 30.2428 34.8688C30.2135 34.8742 30.1789 34.8816 30.1379 34.8921C29.7928 34.9791 29.2945 35.2121 28.6833 35.5988ZM30.3713 34.8574C30.3707 34.8583 30.3635 34.8583 30.3516 34.8559C30.3656 34.8556 30.3719 34.8568 30.3713 34.8574Z" fill="black"/>
</svg>
