<svg width="142" height="64" viewBox="0 0 142 64" fill="none" xmlns="http://www.w3.org/2000/svg">
<path d="M28.3473 12.5659C29.4085 11.9546 30.716 11.9546 31.7772 12.5659L45.829 20.661L36.1127 26.338C34.6086 24.8313 32.5272 23.8989 30.2276 23.8989C27.836 23.8989 25.6805 24.9074 24.1649 26.5215L14.2144 20.7078L28.3473 12.5659Z" fill="black"/>
<path d="M22.2708 29.8001L12.3184 23.9854V40.2399L22.2337 34.4467C22.0301 33.7282 21.9212 32.9702 21.9212 32.1868C21.9212 31.3572 22.0434 30.5559 22.2708 29.8001Z" fill="black"/>
<path d="M24.0756 37.7559L14.3706 43.4262L28.3471 51.4779C29.4084 52.0891 30.7159 52.0891 31.7771 51.4779L45.6725 43.4727L36.2052 37.9414C34.6946 39.5034 32.5747 40.475 30.2274 40.475C27.7886 40.475 25.5952 39.426 24.0756 37.7559Z" fill="black"/>
<path d="M38.148 34.6915L47.8054 40.3341C47.8057 40.3122 47.8061 40.2903 47.8061 40.2684V23.8916L38.1072 29.5582C38.384 30.3843 38.5339 31.2683 38.5339 32.1873C38.5339 33.0601 38.3987 33.9014 38.148 34.6915Z" fill="black"/>
<path fill-rule="evenodd" clip-rule="evenodd" d="M59.3015 41.5136C60.6934 42.3614 62.3658 42.7854 64.3181 42.7854C66.2705 42.7854 67.9426 42.3614 69.3348 41.5136C70.7359 40.6567 71.8067 39.4663 72.548 37.942C73.2984 36.4179 73.6733 34.6499 73.6733 32.6388C73.6733 30.6275 73.2984 28.8597 72.548 27.3355C71.8067 25.8113 70.7359 24.6252 69.3348 23.7774C67.9426 22.9206 66.2705 22.4922 64.3181 22.4922C62.3658 22.4922 60.6934 22.9206 59.3015 23.7774C57.9096 24.6252 56.8384 25.8113 56.0883 27.3355C55.3471 28.8597 54.9763 30.6275 54.9763 32.6388C54.9763 34.6499 55.3471 36.4179 56.0883 37.942C56.8384 39.4663 57.9096 40.6567 59.3015 41.5136ZM67.5859 38.8486C66.7181 39.4348 65.6287 39.7233 64.3181 39.7144C63.0075 39.6963 61.9137 39.3941 61.037 38.8078C60.1693 38.2216 59.5186 37.4053 59.0847 36.3591C58.6508 35.3039 58.4337 34.0638 58.4337 32.6388C58.4337 31.2137 58.6508 29.9691 59.0847 28.9048C59.5275 27.8406 60.1826 27.0153 61.0504 26.429C61.9182 25.8428 63.0075 25.5542 64.3181 25.5632C65.6287 25.5813 66.7181 25.8834 67.5859 26.4696C68.4625 27.0559 69.1177 27.8766 69.5516 28.9319C69.9947 29.9781 70.2159 31.2137 70.2159 32.6388C70.2159 34.0638 69.9947 35.3084 69.5516 36.3728C69.1177 37.4368 68.4625 38.2623 67.5859 38.8486Z" fill="black"/>
<path d="M75.2874 41.6951C75.2874 42.0729 75.5943 42.3796 75.9733 42.3796H77.8825C78.2615 42.3796 78.5684 42.0729 78.5684 41.6951V34.9521C78.5684 34.3929 78.6364 33.8744 78.7718 33.3964C78.9073 32.9094 79.1152 32.4765 79.3954 32.0977C79.6849 31.7188 80.0553 31.4077 80.5074 31.1642C80.9591 30.8936 81.4654 30.7358 82.0258 30.6907C82.2361 30.674 82.4371 30.669 82.6288 30.6757C83.086 30.6918 83.5309 30.3561 83.5309 29.8998V28.3483C83.5309 28.0137 83.2884 27.7235 82.9536 27.7048C82.7029 27.6909 82.4477 27.694 82.1884 27.7143C81.7274 27.7414 81.2757 27.8271 80.8329 27.9714C80.399 28.1067 80.0011 28.2961 79.6396 28.5396C79.2146 28.8012 78.8487 29.1348 78.5413 29.5407C78.4076 29.7188 78.2855 29.906 78.1754 30.1022V28.453C78.1754 28.0749 77.868 27.7685 77.4894 27.7685H75.9733C75.5943 27.7685 75.2874 28.0749 75.2874 28.453V41.6951Z" fill="black"/>
<path fill-rule="evenodd" clip-rule="evenodd" d="M92.0706 42.7858C90.6423 42.7858 89.4446 42.4477 88.4774 41.771C88.2722 41.6276 88.0781 41.4733 87.8946 41.308V41.6954C87.8946 42.0732 87.5873 42.3799 87.2086 42.3799H85.6926C85.3136 42.3799 85.0066 42.0732 85.0066 41.6954V23.5829C85.0066 23.2049 85.3136 22.8984 85.6926 22.8984H87.6151C87.9941 22.8984 88.3011 23.2049 88.3011 23.5829V28.4767C88.346 28.4431 88.3909 28.41 88.4369 28.3776C89.386 27.7011 90.5563 27.3629 91.9485 27.3629C93.3314 27.3629 94.5292 27.7011 95.5413 28.3776C96.5628 29.045 97.3537 29.9604 97.9142 31.1239C98.4746 32.2784 98.7549 33.5952 98.7549 35.0743C98.7549 36.5354 98.4791 37.8479 97.9276 39.0112C97.3764 40.1748 96.5988 41.0948 95.5955 41.771C94.5923 42.4477 93.4172 42.7858 92.0706 42.7858ZM88.2606 32.5715C88.0164 33.284 87.8946 34.1183 87.8946 35.0743C87.8946 36.0213 88.0164 36.8557 88.2606 37.5772C88.5137 38.2986 88.9068 38.8623 89.4401 39.2682C89.9824 39.6652 90.6921 39.8634 91.5688 39.8634C92.4184 39.8634 93.1191 39.6515 93.6703 39.2278C94.2218 38.8038 94.6283 38.2312 94.8907 37.5094C95.1617 36.779 95.2975 35.9672 95.2975 35.0743C95.2975 34.1904 95.1617 33.3877 94.8907 32.6662C94.6194 31.9356 94.1992 31.3584 93.6295 30.9345C93.0601 30.5016 92.3371 30.2851 91.4604 30.2851C90.6286 30.2851 89.9509 30.4881 89.4264 30.8939C88.9023 31.2908 88.5137 31.8499 88.2606 32.5715Z" fill="black"/>
<path d="M100.93 41.6952C100.93 42.073 101.237 42.3797 101.616 42.3797H103.511C103.89 42.3797 104.197 42.073 104.197 41.6952V28.453C104.197 28.075 103.89 27.7686 103.511 27.7686H101.616C101.237 27.7686 100.93 28.075 100.93 28.453V41.6952Z" fill="black"/>
<path d="M115.756 41.8112C115.756 42.1408 115.521 42.4256 115.195 42.4732C114.421 42.5861 113.659 42.6316 112.909 42.6097C111.987 42.5916 111.16 42.4249 110.428 42.109C109.696 41.7846 109.14 41.2749 108.76 40.5802C108.426 39.9491 108.25 39.3043 108.231 38.6458C108.214 37.9873 108.204 37.2433 108.204 36.4133V30.3255H106.233C105.854 30.3255 105.547 30.0191 105.547 29.6411V28.4531C105.547 28.0751 105.854 27.7686 106.233 27.7686H108.204V24.3945C108.204 24.0164 108.512 23.71 108.89 23.71H110.772C111.151 23.71 111.458 24.0164 111.458 24.3945V27.7686H115.07C115.449 27.7686 115.756 28.0751 115.756 28.4531V29.6411C115.756 30.0191 115.449 30.3255 115.07 30.3255H111.458V36.2241C111.458 36.8104 111.463 37.3244 111.472 37.7662C111.49 38.2084 111.585 38.5692 111.757 38.8488C112.082 39.3899 112.602 39.6921 113.316 39.755C113.817 39.7995 114.368 39.7947 114.967 39.7413C115.384 39.704 115.756 40.0223 115.756 40.4406V41.8112Z" fill="black"/>
<path d="M119.574 41.7851C120.64 42.4525 121.928 42.7862 123.438 42.7862C125.074 42.7862 126.457 42.3891 127.587 41.5955C128.534 40.9226 129.243 40.0088 129.714 38.8544C129.864 38.4855 129.628 38.0851 129.238 37.9985L127.226 37.5494C126.884 37.4731 126.545 37.6706 126.391 37.9848C126.156 38.4612 125.854 38.8438 125.485 39.1334C124.988 39.53 124.306 39.7285 123.438 39.7285C122.208 39.7285 121.282 39.3 120.658 38.4434C120.035 37.5864 119.723 36.4635 119.723 35.0747C119.723 34.1818 119.854 33.3836 120.116 32.6801C120.378 31.9766 120.785 31.4264 121.336 31.0296C121.888 30.6237 122.588 30.4208 123.438 30.4208C124.188 30.4208 124.857 30.6418 125.445 31.0837C125.871 31.3981 126.21 31.8053 126.46 32.3052C126.624 32.6322 126.984 32.8349 127.337 32.7393L129.314 32.2051C129.673 32.1081 129.893 31.7413 129.77 31.391C129.367 30.2477 128.676 29.3245 127.695 28.6214C126.547 27.7827 125.142 27.3633 123.479 27.3633C121.996 27.3633 120.717 27.697 119.641 28.3644C118.566 29.0228 117.734 29.9338 117.147 31.0972C116.568 32.2517 116.275 33.5775 116.265 35.0747C116.275 36.545 116.559 37.8616 117.12 39.0252C117.689 40.1885 118.507 41.1085 119.574 41.7851Z" fill="black"/>
<path d="M100.852 23.8313L101.772 22.913C102.174 22.5121 102.825 22.5121 103.227 22.913L104.147 23.8313C104.549 24.2323 104.549 24.8824 104.147 25.2834L103.227 26.2016C102.825 26.6026 102.174 26.6026 101.772 26.2016L100.852 25.2834C100.45 24.8824 100.45 24.2323 100.852 23.8313Z" fill="black"/>
</svg>
