<svg width="148" height="64" viewBox="0 0 148 64" fill="none" xmlns="http://www.w3.org/2000/svg">
<path d="M64.335 43.4318C62.5305 43.4318 60.9921 43.1031 59.7208 42.4458C58.4697 41.7884 57.3932 40.905 56.491 39.7957L58.8902 37.5462C59.6491 38.4706 60.4796 39.1691 61.3819 39.6416C62.3048 40.1141 63.3504 40.3503 64.5193 40.3503C65.8936 40.3503 66.9291 40.0422 67.6264 39.4259C68.3236 38.8096 68.672 37.9776 68.672 36.9299C68.672 36.0877 68.4261 35.42 67.9339 34.927C67.4416 34.4339 66.5701 34.0642 65.319 33.8176L63.412 33.4787C61.3203 33.0883 59.7516 32.4002 58.7055 31.4141C57.6598 30.428 57.1367 29.0722 57.1367 27.3465C57.1367 26.4015 57.3109 25.549 57.6598 24.7889C58.0289 24.0082 58.5313 23.3612 59.1669 22.8476C59.8233 22.3134 60.6129 21.9026 61.5358 21.615C62.4583 21.3274 63.4943 21.1836 64.6425 21.1836C66.2626 21.1836 67.6673 21.4712 68.8568 22.0464C70.0463 22.6011 71.0612 23.4125 71.9023 24.4807L69.4718 26.6378C68.9184 25.9188 68.2413 25.3436 67.4416 24.9122C66.6418 24.4807 65.6472 24.2651 64.4582 24.2651C63.2277 24.2651 62.274 24.5116 61.597 25.0046C60.9204 25.4977 60.5821 26.2167 60.5821 27.1617C60.5821 28.0655 60.8588 28.7435 61.4127 29.1954C61.9665 29.6268 62.8274 29.9555 63.9967 30.1815L65.9037 30.5821C68.057 30.9929 69.6257 31.6914 70.6103 32.6775C71.615 33.6635 72.1174 35.0194 72.1174 36.745C72.1174 37.7516 71.9432 38.6658 71.5943 39.4875C71.2459 40.3093 70.733 41.018 70.0564 41.6138C69.4001 42.189 68.5902 42.6409 67.6264 42.9696C66.6625 43.2778 65.5654 43.4318 64.335 43.4318Z" fill="black"/>
<path d="M80.689 43.4322C79.5409 43.4322 78.5155 43.237 77.6132 42.8467C76.711 42.4564 75.9521 41.9017 75.3367 41.1827C74.7217 40.4431 74.2501 39.5598 73.9219 38.5326C73.5938 37.4849 73.4297 36.3242 73.4297 35.0505C73.4297 33.7769 73.5938 32.6265 73.9219 31.5993C74.2501 30.5516 74.7217 29.6682 75.3367 28.9492C75.9521 28.2097 76.711 27.6447 77.6132 27.2544C78.5155 26.8641 79.5409 26.6689 80.689 26.6689C82.2885 26.6689 83.6012 27.0285 84.6267 27.7475C85.6521 28.4665 86.4004 29.4217 86.872 30.6132L84.1036 31.9075C83.8779 31.1679 83.4781 30.5824 82.904 30.151C82.3501 29.699 81.612 29.4731 80.689 29.4731C79.4586 29.4731 78.5256 29.8634 77.8899 30.644C77.2749 31.4041 76.967 32.4005 76.967 33.6331V36.4988C76.967 37.7314 77.2749 38.7381 77.8899 39.5187C78.5256 40.2788 79.4586 40.6588 80.689 40.6588C81.6736 40.6588 82.4526 40.4226 83.0272 39.9501C83.6219 39.4571 84.0935 38.8099 84.4419 38.0088L86.9951 39.3646C86.462 40.6794 85.6622 41.686 84.5959 42.3844C83.5295 43.0829 82.2274 43.4322 80.689 43.4322Z" fill="black"/>
<path d="M100.369 43.0624C99.4873 43.0624 98.8103 42.8159 98.3387 42.3228C97.8671 41.8092 97.5798 41.1621 97.4773 40.3815H97.3238C97.0159 41.3881 96.4519 42.1482 95.6319 42.6618C94.8115 43.1754 93.8169 43.4322 92.648 43.4322C90.9869 43.4322 89.705 43.0007 88.8028 42.1379C87.9212 41.2751 87.48 40.1144 87.48 38.6559C87.48 37.0535 88.0545 35.8517 89.2027 35.0505C90.3715 34.2494 92.074 33.8488 94.3091 33.8488H97.2006V32.4929C97.2006 31.5068 96.9341 30.7468 96.4009 30.2126C95.8677 29.6785 95.0372 29.4115 93.9092 29.4115C92.9656 29.4115 92.1967 29.6169 91.6019 30.0277C91.0072 30.4386 90.5048 30.9625 90.0948 31.5993L88.0954 29.7812C88.6286 28.8773 89.3769 28.1378 90.3407 27.5626C91.3045 26.9668 92.5658 26.6689 94.1244 26.6689C96.1959 26.6689 97.7848 27.1517 98.8925 28.1172C99.9998 29.0828 100.554 30.4694 100.554 32.2772V40.3199H102.246V43.0624H100.369ZM93.6018 40.8746C94.6474 40.8746 95.5088 40.6486 96.1853 40.1966C96.8624 39.7241 97.2006 39.0976 97.2006 38.3169V36.0058H94.3707C92.0533 36.0058 90.8946 36.7248 90.8946 38.1628V38.7175C90.8946 39.4365 91.1303 39.9809 91.6019 40.3507C92.0942 40.6999 92.7606 40.8746 93.6018 40.8746Z" fill="black"/>
<path d="M107.408 43.0617C106.259 43.0617 105.398 42.7741 104.824 42.1989C104.27 41.6032 103.993 40.7814 103.993 39.7337V20.2588H107.346V40.3192H109.561V43.0617H107.408Z" fill="black"/>
<path d="M117.502 43.4322C116.354 43.4322 115.328 43.237 114.426 42.8467C113.524 42.4564 112.755 41.9017 112.119 41.1827C111.484 40.4431 110.991 39.5598 110.642 38.5326C110.314 37.4849 110.151 36.3242 110.151 35.0505C110.151 33.7769 110.314 32.6265 110.642 31.5993C110.991 30.5516 111.484 29.6682 112.119 28.9492C112.755 28.2097 113.524 27.6447 114.426 27.2544C115.328 26.8641 116.354 26.6689 117.502 26.6689C118.671 26.6689 119.697 26.8743 120.578 27.2852C121.481 27.6961 122.229 28.2713 122.824 29.0108C123.419 29.7298 123.859 30.5721 124.147 31.5376C124.454 32.5032 124.608 33.5406 124.608 34.6499V35.9134H113.626V36.4372C113.626 37.6698 113.985 38.6867 114.703 39.4879C115.441 40.2685 116.487 40.6588 117.841 40.6588C118.825 40.6588 119.656 40.4431 120.332 40.0117C121.009 39.5803 121.583 38.9948 122.055 38.2553L124.024 40.1966C123.429 41.1827 122.567 41.9736 121.44 42.5694C120.312 43.1446 118.999 43.4322 117.502 43.4322ZM117.502 29.2882C116.928 29.2882 116.395 29.3909 115.903 29.5963C115.431 29.8018 115.021 30.0894 114.672 30.4591C114.344 30.8289 114.088 31.2706 113.903 31.7842C113.719 32.2978 113.626 32.8627 113.626 33.479V33.6947H121.07V33.3866C121.07 32.154 120.753 31.1679 120.117 30.4283C119.481 29.6682 118.61 29.2882 117.502 29.2882Z" fill="black"/>
<path d="M36.4156 18.417H23.0864V45.5825H49.2854V31.3091H46.5276V42.8199H25.8442V21.1796H36.4156V18.417Z" fill="black"/>
<path d="M39.633 21.1796H44.5776L32.279 33.4997V28.5465H29.5212V38.2156H39.1734V35.453H34.2293L46.5277 23.1332V28.0861H49.2854V18.417H39.633V21.1796Z" fill="black"/>
</svg>
