<svg width="178" height="64" viewBox="0 0 178 64" fill="none" xmlns="http://www.w3.org/2000/svg">
<path d="M134.047 18.4814V45.1766H137.94V18.4814H134.047Z" fill="black"/>
<path fill-rule="evenodd" clip-rule="evenodd" d="M98.8476 45.6073C97.3115 45.6073 96.0283 45.2482 94.9978 44.5299C94.8849 44.4515 94.7755 44.3697 94.6687 44.2848V45.1764H91.2339V18.9121H95.1553V30.1637C96.1173 29.5429 97.2811 29.2325 98.6471 29.2325C100.126 29.2325 101.414 29.5868 102.511 30.2954C103.609 31.004 104.458 31.976 105.059 33.2113C105.669 34.437 105.974 35.8399 105.974 37.4197C105.974 38.9711 105.674 40.3644 105.073 41.5999C104.482 42.8351 103.651 43.8118 102.583 44.5299C101.514 45.2482 100.269 45.6073 98.8476 45.6073ZM95.0121 34.9494C94.783 35.6578 94.6687 36.4813 94.6687 37.4197C94.6687 38.3581 94.783 39.1819 95.0121 39.8904C95.2409 40.5992 95.6133 41.1495 96.1282 41.5424C96.653 41.935 97.3497 42.1311 98.2178 42.1311C99.0574 42.1311 99.7445 41.9206 100.279 41.4993C100.813 41.078 101.209 40.5129 101.466 39.8041C101.724 39.0861 101.853 38.2914 101.853 37.4197C101.853 36.5579 101.72 35.7728 101.452 35.0644C101.185 34.346 100.77 33.7762 100.207 33.3549C99.6538 32.924 98.9428 32.7085 98.0746 32.7085C97.2637 32.7085 96.6053 32.9048 96.0999 33.2975C95.6038 33.69 95.2409 34.2406 95.0121 34.9494Z" fill="black"/>
<path d="M85.0797 36.0122V45.1765H88.9722V34.9782C88.9722 33.2832 88.519 31.9138 87.6126 30.8701C86.7158 29.8167 85.3849 29.29 83.6199 29.29C82.5894 29.29 81.6496 29.5199 80.8005 29.9795C80.0231 30.3962 79.3888 30.969 78.8978 31.6977C78.5315 31.0363 78.0255 30.4923 77.38 30.0657C76.6073 29.5486 75.615 29.29 74.4034 29.29C73.3443 29.29 72.3854 29.5246 71.5268 29.9939C70.8779 30.3524 70.3292 30.8089 69.8808 31.3631V29.6635H66.4463V45.1765H70.3674V35.7825C70.3674 34.892 70.6109 34.169 71.0975 33.6136C71.5936 33.0486 72.247 32.7661 73.0579 32.7661C73.9073 32.7661 74.5702 33.0534 75.0472 33.6279C75.5338 34.1929 75.7773 34.9878 75.7773 36.0122V45.1765H79.6698V35.7825C79.6698 35.1887 79.7796 34.6668 79.9992 34.2168C80.228 33.7572 80.5427 33.4029 80.9437 33.1539C81.3444 32.8954 81.8167 32.7661 82.3606 32.7661C83.2097 32.7661 83.8726 33.0534 84.3496 33.6279C84.8362 34.1929 85.0797 34.9878 85.0797 36.0122Z" fill="black"/>
<path d="M52.4997 45.018C53.2628 45.4297 54.2503 45.6357 55.4622 45.6357C56.979 45.6357 58.2339 45.3054 59.2262 44.6446C59.6971 44.3341 60.1121 43.9779 60.4711 43.5764V45.1761H63.906V29.6631H59.9845V37.5344C59.9845 38.492 59.8747 39.2675 59.6555 39.8613C59.4454 40.4455 59.1736 40.8908 58.8395 41.1971C58.5056 41.4942 58.1479 41.6951 57.7663 41.8005C57.3848 41.9059 57.0267 41.9586 56.6929 41.9586C55.8629 41.9586 55.2188 41.7717 54.7608 41.3984C54.3124 41.025 53.9881 40.5605 53.7876 40.0051C53.5874 39.4496 53.4681 38.8989 53.4299 38.3531C53.3917 37.7979 53.3726 37.3431 53.3726 36.9885V29.6631H49.4229V38.3674C49.4229 38.6262 49.4416 39.0379 49.4798 39.6029C49.518 40.168 49.6278 40.795 49.8092 41.4846C49.9903 42.1643 50.291 42.8204 50.7108 43.4525C51.1401 44.0843 51.7365 44.6062 52.4997 45.018Z" fill="black"/>
<path d="M107.693 29.663V45.176H111.614V37.2472C111.614 36.6534 111.695 36.1219 111.857 35.6527C112.02 35.1739 112.258 34.7622 112.573 34.4175C112.888 34.0632 113.274 33.7807 113.732 33.57C114.19 33.3498 114.7 33.2205 115.263 33.1822C115.836 33.1343 116.337 33.1774 116.766 33.3115V29.663C116.298 29.6056 115.831 29.596 115.363 29.6343C114.896 29.663 114.443 29.7444 114.004 29.8785C113.565 30.003 113.159 30.1801 112.787 30.41C112.301 30.6972 111.891 31.0611 111.557 31.5016C111.399 31.7102 111.255 31.9294 111.127 32.1594V29.663H107.693Z" fill="black"/>
<path fill-rule="evenodd" clip-rule="evenodd" d="M124.962 45.6072C123.378 45.6072 121.98 45.2674 120.769 44.5873C119.566 43.898 118.622 42.9548 117.935 41.7576C117.258 40.5512 116.919 39.1723 116.919 37.6209C116.919 35.9261 117.253 34.4514 117.921 33.1969C118.588 31.9424 119.509 30.9704 120.683 30.281C121.856 29.582 123.207 29.2324 124.733 29.2324C126.355 29.2324 127.734 29.6155 128.869 30.3815C130.004 31.1476 130.844 32.2249 131.388 33.6134C131.932 35.002 132.123 36.6346 131.96 38.5114H121.107C121.229 39.4427 121.517 40.199 121.971 40.7809C122.601 41.5663 123.521 41.9589 124.733 41.9589C125.496 41.9589 126.15 41.7912 126.694 41.4561C127.237 41.1211 127.652 40.6375 127.939 40.0053L131.831 41.1258C131.249 42.5431 130.329 43.6441 129.069 44.4292C127.82 45.2147 126.45 45.6072 124.962 45.6072ZM127.352 33.6709C127.685 34.1245 127.908 34.771 128.022 35.6099H121.21C121.361 34.8935 121.615 34.3045 121.971 33.8432C122.601 33.0293 123.579 32.6223 124.905 32.6223C126.04 32.6223 126.856 32.9718 127.352 33.6709Z" fill="black"/>
<path d="M141.085 45.1766V18.4814H144.978V45.1766H141.085Z" fill="black"/>
<path fill-rule="evenodd" clip-rule="evenodd" d="M149.311 44.9751C150.084 45.3964 151.024 45.6072 152.131 45.6072C153.466 45.6072 154.568 45.3772 155.437 44.9176C156.129 44.5476 156.782 43.9993 157.397 43.2721V45.1763H160.804V35.6961C160.804 34.9877 160.775 34.346 160.718 33.7714C160.66 33.1969 160.479 32.6223 160.174 32.0477C159.63 31.0135 158.828 30.2858 157.769 29.8644C156.71 29.4431 155.499 29.2324 154.134 29.2324C152.274 29.2324 150.804 29.6346 149.726 30.439C148.648 31.2434 147.914 32.2871 147.522 33.5703L151.043 34.6906C151.291 33.9821 151.725 33.4889 152.345 33.2112C152.965 32.9335 153.562 32.7947 154.134 32.7947C155.165 32.7947 155.899 33.0101 156.338 33.4411C156.683 33.7794 156.892 34.2683 156.966 34.9079C156.307 35.0082 155.683 35.1033 155.093 35.1934C154.091 35.3371 153.195 35.4904 152.403 35.653C151.611 35.8159 150.929 36.0028 150.356 36.2132C149.526 36.5196 148.863 36.9029 148.367 37.3625C147.88 37.8126 147.527 38.3341 147.308 38.9279C147.088 39.5217 146.979 40.1778 146.979 40.8959C146.979 41.7576 147.174 42.5475 147.565 43.2659C147.966 43.9744 148.548 44.5442 149.311 44.9751ZM154.764 42.1598C154.278 42.4089 153.676 42.5335 152.961 42.5335C152.512 42.5335 152.126 42.4664 151.802 42.3323C151.477 42.1981 151.224 42.0068 151.043 41.7576C150.871 41.4992 150.785 41.1926 150.785 40.8384C150.785 40.58 150.838 40.3452 150.943 40.1347C151.057 39.9239 151.229 39.7326 151.458 39.5601C151.697 39.378 152.007 39.2106 152.388 39.0573C152.722 38.9327 153.109 38.8177 153.547 38.7127C153.986 38.6073 154.564 38.4923 155.279 38.3677C155.739 38.2818 156.289 38.1836 156.93 38.0737C156.922 38.3468 156.905 38.6555 156.882 38.9998C156.853 39.5553 156.739 40.0437 156.539 40.465C156.434 40.685 156.233 40.9581 155.938 41.2836C155.651 41.6091 155.26 41.9014 154.764 42.1598Z" fill="black"/>
<path fill-rule="evenodd" clip-rule="evenodd" d="M27.94 29.7754H17.3691V34.3957C17.3691 41.2947 22.9416 46.8877 29.8155 46.8877C36.6895 46.8877 42.262 41.2947 42.262 34.3957V29.7754H31.35V22.4171C31.35 19.4874 28.9836 17.1123 26.0645 17.1123C23.1455 17.1123 20.7791 19.4874 20.7791 22.4171H24.1891C24.1891 21.3775 25.0288 20.5348 26.0645 20.5348C27.1004 20.5348 27.94 21.3775 27.94 22.4171V29.7754ZM27.94 33.1979V39.7005H31.35V33.1979H38.8521V34.3957C38.8521 39.4048 34.8062 43.4652 29.8155 43.4652C24.8249 43.4652 20.7791 39.4048 20.7791 34.3957V33.1979H27.94Z" fill="black"/>
</svg>
